<svg height="512pt" viewBox="0 0 512 512" width="512pt" xmlns="http://www.w3.org/2000/svg" xmlns:xlink="http://www.w3.org/1999/xlink"><linearGradient id="lg1"><stop offset="0" stop-color="#554fb2"/><stop offset="1" stop-color="#2b4478"/></linearGradient><linearGradient id="linear0" gradientUnits="userSpaceOnUse" x1="72.9999" x2="435.788" xlink:href="#lg1" y1="72.9999" y2="435.7881"/><linearGradient id="lg2"><stop offset="0" stop-color="#adf2f5"/><stop offset="1" stop-color="#83b3f1"/></linearGradient><linearGradient id="linear1" gradientUnits="userSpaceOnUse" x1="160" x2="348.449" xlink:href="#lg2" y1="220.7265" y2="220.7265"/><linearGradient id="linear2" gradientUnits="userSpaceOnUse" x1="160" x2="348.4487" xlink:href="#lg2" y1="220.7265" y2="220.7265"/><linearGradient id="lg3"><stop offset="0" stop-color="#83b3f1"/><stop offset="1" stop-color="#928bff"/></linearGradient><linearGradient id="linear3" gradientUnits="userSpaceOnUse" x1="193" x2="317.4031" xlink:href="#lg3" y1="238.3633" y2="238.3633"/><linearGradient id="linear4" gradientUnits="userSpaceOnUse" x1="193" x2="317.4027" xlink:href="#lg3" y1="238.3633" y2="238.3633"/><linearGradient id="lg4"><stop offset="0" stop-color="#928bff"/><stop offset="1" stop-color="#736dd9"/></linearGradient><linearGradient id="linear5" gradientUnits="userSpaceOnUse" x1="142" x2="368.0007" xlink:href="#lg4" y1="344.7715" y2="344.7715"/><linearGradient id="linear6" gradientUnits="userSpaceOnUse" x1="141.9999" x2="367.9998" xlink:href="#lg4" y1="344.7715" y2="344.7715"/><linearGradient id="linear7" gradientUnits="userSpaceOnUse" x1="231" x2="286.0817" xlink:href="#lg1" y1="202.502" y2="202.502"/><linearGradient id="linear9" gradientUnits="userSpaceOnUse" x1="232" x2="286.0094" xlink:href="#lg1" y1="237.7754" y2="237.7754"/><linearGradient id="linear10" gradientUnits="userSpaceOnUse" x1="232" x2="286.0092" xlink:href="#lg1" y1="237.7754" y2="237.7754"/><path d="m512 256c0 141.386719-114.613281 256-256 256s-256-114.613281-256-256 114.613281-256 256-256 256 114.613281 256 256zm0 0" fill="url(#linear0)"/><path d="m353.003906 202.503906c0-53.488281-43.515625-97.003906-97.003906-97.003906l-64.667969 230.453125h161.671875zm0 0" fill="url(#linear1)"/><path d="m158.996094 202.503906v133.449219h97.003906v-230.453125c-53.488281 0-97.003906 43.515625-97.003906 97.003906zm0 0" fill="url(#linear2)"/><path d="m317.726562 202.503906c0-34.039062-27.691406-61.730468-61.726562-61.730468l-58.789062 195.179687h120.519531v-133.449219zm0 0" fill="url(#linear3)"/><path d="m194.269531 202.503906v133.449219h61.730469v-195.179687c-34.035156 0-61.730469 27.691406-61.730469 61.730468zm0 0" fill="url(#linear4)"/><path d="m370.640625 318.316406h-114.640625l-58.789062 52.910156h173.429687zm0 0" fill="url(#linear5)"/><path d="m141.359375 318.316406h114.640625v52.910156h-114.640625zm0 0" fill="url(#linear6)"/><path d="m282.453125 193.683594h-26.453125l-17.636719 8.820312 17.636719 8.816406h26.453125zm0 0" fill="url(#linear7)"/><path d="m229.546875 193.683594h26.453125v17.636718h-26.453125zm0 0" fill="url(#linear7)"/><path d="m282.453125 228.957031h-26.453125l-17.636719 8.816407 17.636719 8.820312h26.453125zm0 0" fill="url(#linear9)"/><path d="m229.546875 228.957031h26.453125v17.636719h-26.453125zm0 0" fill="url(#linear10)"/><g fill="#83b3f1"><path d="m105.5 353.589844h150.5v52.910156h-150.5zm0 0"/><path d="m256 353.589844h150.5v52.910156h-150.5zm0 0"/></g></svg>