<svg height="512pt" viewBox="0 -4 512 512" width="512pt" xmlns="http://www.w3.org/2000/svg"><path d="m421.617188 504.425781h-331.234376c-5.578124 0-10.097656-4.519531-10.097656-10.097656v-111.796875c0-5.578125 4.519532-10.097656 10.097656-10.097656h331.234376c5.578124 0 10.101562 4.519531 10.101562 10.097656v111.796875c-.003906 5.578125-4.523438 10.097656-10.101562 10.097656zm0 0" fill="#607882"/><path d="m409.5 372.433594v131.992187h12.117188c5.578124 0 10.097656-4.519531 10.097656-10.097656v-111.796875c0-5.578125-4.519532-10.097656-10.097656-10.097656zm0 0" fill="#495959"/><path d="m155.015625 347.390625h201.96875v36.355469h-201.96875zm0 0" fill="#ef75a7"/><path d="m343.859375 347.390625v15.148437c0 4.464844-3.617187 8.078126-8.082031 8.078126h-180.761719v13.128906h201.96875v-36.355469zm0 0" fill="#eb5793"/><path d="m280.238281 100.984375c0-13.382813-10.851562-24.234375-24.238281-24.234375s-24.238281 10.851562-24.238281 24.234375v14.140625h48.472656v-14.140625zm0 0" fill="#607882"/><path d="m256 76.75c-2.460938 0-4.832031.367188-7.070312 1.050781 9.9375 3.023438 17.167968 12.257813 17.167968 23.183594v14.136719h14.140625v-14.136719c0-13.382813-10.851562-24.234375-24.238281-24.234375zm0 0" fill="#495959"/><path d="m228.472656 135.691406 3.289063-20.566406h48.472656l3.292969 20.566406c.394531 2.457032-1.503906 4.679688-3.988282 4.679688h-47.078124c-2.484376 0-4.382813-2.222656-3.988282-4.679688zm0 0" fill="#fff263"/><path d="m393.339844 100.984375c0-13.382813-10.851563-24.234375-24.234375-24.234375-13.386719 0-24.238281 10.851562-24.238281 24.234375v14.140625h48.472656zm0 0" fill="#607882"/><path d="m369.105469 76.75c-2.460938 0-4.832031.367188-7.070313 1.050781 9.9375 3.023438 17.167969 12.257813 17.167969 23.183594v14.136719h14.140625v-14.136719c-.003906-13.382813-10.855469-24.234375-24.238281-24.234375zm0 0" fill="#495959"/><path d="m341.578125 135.691406 3.289063-20.566406h48.472656l3.292968 20.566406c.390626 2.457032-1.503906 4.679688-3.988281 4.679688h-47.078125c-2.488281 0-4.382812-2.222656-3.988281-4.679688zm0 0" fill="#fff263"/><path d="m167.132812 100.984375c0-13.382813-10.851562-24.234375-24.238281-24.234375s-24.238281 10.851562-24.238281 24.234375v14.140625h48.476562zm0 0" fill="#607882"/><path d="m142.894531 76.75c-2.460937 0-4.832031.367188-7.070312 1.050781 9.9375 3.023438 17.167969 12.257813 17.167969 23.183594v14.136719h14.140624v-14.136719c0-13.382813-10.851562-24.234375-24.238281-24.234375zm0 0" fill="#495959"/><path d="m115.367188 135.691406 3.292968-20.566406h48.472656l3.289063 20.566406c.394531 2.457032-1.5 4.679688-3.988281 4.679688h-47.078125c-2.484375 0-4.378907-2.222656-3.988281-4.679688zm0 0" fill="#fff263"/><g fill="#5a5a5a"><path d="m512 66.652344c0-4.183594-3.390625-7.574219-7.574219-7.574219-4.183593 0-7.574219 3.390625-7.574219 7.574219v27.15625l-28.78125 28.78125-28.78125-28.78125v-27.15625c0-4.183594-3.390624-7.574219-7.574218-7.574219s-7.574219 3.390625-7.574219 7.574219v430.199218c0 4.183594 3.390625 7.574219 7.574219 7.574219 2.09375 0 3.988281-.847656 5.359375-2.21875l30.996093-31 31 31c1.371094 1.371094 3.265626 2.21875 5.355469 2.21875 4.183594 0 7.574219-3.390625 7.574219-7.574219 0-96.914062 0-399.230468 0-430.199218zm-15.148438 113.609375h-57.5625v-7.46875l28.78125-28.78125 28.78125 28.78125zm0 22.613281-28.78125 28.78125-28.78125-28.78125v-7.464844h57.5625zm-39.492187 39.492188-18.070313 18.070312v-36.140625zm39.492187 46.957031h-57.5625v-7.464844l28.78125-28.78125 28.78125 28.78125zm0 22.617187-28.78125 28.78125-28.78125-28.78125v-7.46875h57.5625zm-39.492187 39.492188-18.070313 18.070312v-36.140625zm39.492187 46.957031h-57.5625v-7.464844l28.78125-28.78125 28.78125 28.78125zm-57.5625 15.148437h57.5625v7.464844l-28.78125 28.78125-28.78125-28.78125zm39.492188-62.105468 18.070312-18.070313v36.140625zm0-109.066406 18.070312-18.070313v36.140625zm18.070312-127.136719v36.140625l-18.070312-18.070313zm-39.492187 18.070312-18.070313 18.070313v-36.140625zm-18.070313 345.265625v-36.140625l18.070313 18.070313zm57.5625-36.140625v36.140625l-18.070312-18.070312zm0 0"/><path d="m87.859375 66.652344c0-4.183594-3.390625-7.574219-7.574219-7.574219s-7.574218 3.390625-7.574218 7.574219v27.15625l-28.78125 28.78125-28.78125-28.78125v-27.15625c0-4.183594-3.390626-7.574219-7.574219-7.574219-4.183594 0-7.574219 3.390625-7.574219 7.574219v430.199218c0 4.183594 3.390625 7.574219 7.574219 7.574219 2.089843 0 3.984375-.847656 5.355469-2.21875l31-31 30.996093 31c1.371094 1.371094 3.265625 2.21875 5.359375 2.21875 4.183594 0 7.574219-3.390625 7.574219-7.574219 0-96.914062 0-399.230468 0-430.199218zm-15.148437 113.609375h-57.5625v-7.46875l28.78125-28.78125 28.78125 28.78125zm0 22.613281-28.78125 28.78125-28.78125-28.78125v-7.464844h57.5625zm-39.492188 39.492188-18.070312 18.070312v-36.140625zm39.492188 46.957031h-57.5625v-7.464844l28.78125-28.78125 28.78125 28.78125zm0 22.617187-28.78125 28.78125-28.78125-28.78125v-7.46875h57.5625zm-39.492188 39.492188-18.070312 18.070312v-36.140625zm39.492188 46.957031h-57.5625v-7.464844l28.78125-28.78125 28.78125 28.78125zm-57.5625 15.148437h57.5625v7.464844l-28.78125 28.78125-28.78125-28.78125zm39.492187-62.105468 18.070313-18.070313v36.140625zm0-109.066406 18.070313-18.070313v36.140625zm18.070313-127.136719v36.140625l-18.070313-18.070313zm-39.492188 18.070312-18.070312 18.070313v-36.140625zm-18.070312 345.265625v-36.140625l18.070312 18.070313zm57.5625-36.140625v36.140625l-18.070313-18.070312zm0 0"/><path d="m297.097656 342.464844-28.472656-33.21875v-87.078125c0-4.183594-3.390625-7.574219-7.574219-7.574219-4.183593 0-7.574219 3.390625-7.574219 7.574219v87.078125l-28.472656 33.21875c-2.722656 3.175781-2.355468 7.957031.820313 10.679687 1.429687 1.222657 3.183593 1.820313 4.929687 1.820313 2.132813 0 4.253906-.894532 5.753906-2.644532l16.96875-19.800781v14.871094c0 4.183594 3.390626 7.574219 7.574219 7.574219 4.183594 0 7.574219-3.390625 7.574219-7.574219v-14.871094l16.972656 19.800781c1.496094 1.75 3.617188 2.644532 5.753906 2.644532 1.742188 0 3.496094-.597656 4.925782-1.820313 3.171875-2.722656 3.539062-7.503906.820312-10.679687zm0 0"/></g><path d="m349.410156 373.648438v-115.125c0-5.574219 4.523438-10.097657 10.101563-10.097657h54.53125c5.578125 0 10.101562 4.519531 10.101562 10.097657v115.125c0 5.578124-4.523437 10.097656-10.101562 10.097656h-54.53125c-5.578125 0-10.101563-4.519532-10.101563-10.097656zm0 0" fill="#cdcdcd"/><path d="m413.035156 248.425781v114.113281c0 5.578126-4.523437 10.101563-10.101562 10.101563h-53.523438v1.007813c0 5.578124 4.523438 10.097656 10.101563 10.097656h54.53125c5.578125 0 10.101562-4.519532 10.101562-10.097656v-115.125c0-5.574219-4.523437-10.097657-10.101562-10.097657zm0 0" fill="#aaa"/><path d="m401.925781 343.351562c0 8.367188-6.78125 15.148438-15.148437 15.148438-8.367188 0-15.148438-6.78125-15.148438-15.148438 0-8.363281 6.78125-15.148437 15.148438-15.148437 8.367187 0 15.148437 6.785156 15.148437 15.148437zm0 0" fill="#607882"/><path d="m401.925781 288.820312c0 8.367188-6.78125 15.148438-15.148437 15.148438-8.367188 0-15.148438-6.78125-15.148438-15.148438 0-8.367187 6.78125-15.148437 15.148438-15.148437 8.367187 0 15.148437 6.78125 15.148437 15.148437zm0 0" fill="#607882"/><path d="m87.859375 373.648438v-115.125c0-5.574219 4.519531-10.097657 10.097656-10.097657h54.53125c5.578125 0 10.101563 4.519531 10.101563 10.097657v115.125c0 5.578124-4.523438 10.097656-10.101563 10.097656h-54.53125c-5.578125 0-10.097656-4.519532-10.097656-10.097656zm0 0" fill="#cdcdcd"/><path d="m151.480469 248.425781v114.113281c0 5.578126-4.523438 10.101563-10.101563 10.101563h-53.519531v1.007813c0 5.578124 4.519531 10.097656 10.097656 10.097656h54.53125c5.578125 0 10.101563-4.519532 10.101563-10.097656v-115.125c0-5.574219-4.523438-10.097657-10.101563-10.097657zm0 0" fill="#aaa"/><path d="m140.371094 343.351562c0 8.367188-6.78125 15.148438-15.148438 15.148438-8.367187 0-15.148437-6.78125-15.148437-15.148438 0-8.363281 6.78125-15.148437 15.148437-15.148437 8.367188 0 15.148438 6.785156 15.148438 15.148437zm0 0" fill="#607882"/><path d="m140.371094 288.820312c0 8.367188-6.78125 15.148438-15.148438 15.148438-8.367187 0-15.148437-6.78125-15.148437-15.148438 0-8.367187 6.78125-15.148437 15.148437-15.148437 8.367188 0 15.148438 6.78125 15.148438 15.148437zm0 0" fill="#607882"/><path d="m512 10.097656c0-5.574218-4.519531-10.097656-10.097656-10.097656h-491.804688c-5.578125 0-10.097656 4.519531-10.097656 10.097656v56.554688c0 5.574218 4.519531 10.097656 10.097656 10.097656h491.804688c5.574218 0 10.097656-4.519531 10.097656-10.097656zm0 0" fill="#cdcdcd"/><path d="m497.863281 0v52.511719c0 5.578125-4.523437 10.101562-10.101562 10.101562h-487.761719v4.039063c0 5.574218 4.519531 10.097656 10.097656 10.097656h491.804688c5.574218 0 10.097656-4.519531 10.097656-10.097656v-56.554688c0-5.574218-4.519531-10.097656-10.097656-10.097656zm0 0" fill="#aaa"/><path d="m277.207031 229.742188h-29.285156c-4.183594 0-7.574219-3.390626-7.574219-7.570313 0-4.183594 3.390625-7.574219 7.574219-7.574219h29.285156c4.183594 0 7.574219 3.390625 7.574219 7.574219 0 4.179687-3.390625 7.570313-7.574219 7.570313zm0 0" fill="#607882"/><path d="m260.867188 219.945312c1.472656 8.984376-6.183594 16.644532-15.167969 15.167969-5.441407-.890625-9.832031-5.277343-10.722657-10.71875-1.472656-8.988281 6.183594-16.644531 15.167969-15.171875 5.441407.894532 9.828125 5.28125 10.722657 10.722656zm0 0" fill="#cdcdcd"/></svg>